:SAMPLES-PER-SECOND 30
:FULLY-SPECIFIED
:DEGREES
352
root  42.0496 38.4361 -4.26392 -179.461 54.4754 -175.577
RightUpLeg  -19.5316 -25.5666 -0.583723
RightLeg  24.408 4.14267 2.07548
RightFoot  -0.00618019 0.0571597 -0.570774
RightToes  0.000482159 0.542163 -0.142577
Spine  23.1707 -2.16509 10.6846
Spine1  12.8878 1.86099 -5.34877
HEad  19.0412 7.00977 -8.64484
LeftShoulder1  8.66236 -13.6912 -43.8488
LeftArm  -22.4112 13.8533 -22.5063
LeftForeArm  40.1865 -58.5833 -14.7868
LeftHand  -0.25398 0.0180481 5.50724
RightShoulder  6.23419 10.8029 37.5469
RightArm  -6.39619 3.06935 32.3178
RightForeArm  8.98866 10.4366 7.23917
RightHand  -0.766505 1.10913 -13.8104
LeftUpLeg  -16.3123 1.71927 5.98258
LeftLeg  59.2685 4.59883 8.81619
LeftFoot  0.49476 -0.0172196 0.292658
LeftToes  1.06247e-005 4.65855e-005 -8.18504e-006
353
root  43.1056 38.657 -4.18917 -179.581 53.0384 -176.04
RightUpLeg  -18.0568 -26.1572 -0.512641
RightLeg  24.3326 3.38703 1.83098
RightFoot  -1.46944 0.0721613 -0.947106
RightToes  0.000482159 0.542163 -0.142577
Spine  24.0634 -1.69728 9.90308
Spine1  13.1213 2.11817 -5.07031
HEad  18.4137 5.76128 -7.81359
LeftShoulder1  8.80382 -13.8328 -44.2195
LeftArm  -21.3576 14.5276 -22.7532
LeftForeArm  38.176 -55.4364 -13.0701
LeftHand  -0.25398 0.0180481 5.50724
RightShoulder  6.24547 10.9505 37.1917
RightArm  -7.95567 7.12896 31.8926
RightForeArm  10.0793 8.7036 7.21915
RightHand  -0.813395 1.30489 -14.2182
LeftUpLeg  -20.1106 4.97145 5.2097
LeftLeg  59.5813 4.64561 9.05801
LeftFoot  -1.21583 -0.122056 1.40558
LeftToes  1.06247e-005 4.65855e-005 -8.18504e-006
354
root  44.1377 38.9343 -4.16856 -179.729 51.21 -176.839
RightUpLeg  -16.4316 -26.6241 -0.785393
RightLeg  23.6707 2.02776 1.52792
RightFoot  -2.98855 0.0642474 -1.15878
RightToes  0.000482159 0.542163 -0.142577
Spine  24.6785 -1.42394 9.09076
Spine1  13.3435 2.16905 -5.12366
HEad  17.8277 5.01318 -7.7303
LeftShoulder1  8.91207 -13.9828 -44.3871
LeftArm  -19.7912 14.6369 -22.8381
LeftForeArm  36.0672 -51.6426 -11.3282
LeftHand  -0.25398 0.0180481 5.50724
RightShoulder  6.17249 10.9179 36.7949
RightArm  -9.56159 10.9022 31.6392
RightForeArm  9.35663 8.05904 6.99688
RightHand  -0.931082 1.75955 -15.2547
LeftUpLeg  -22.9132 8.39514 3.31301
LeftLeg  55.4627 4.78329 7.93594
LeftFoot  -3.40506 0.00968168 0.167357
LeftToes  1.06247e-005 4.65855e-005 -8.18504e-006
355
root  45.1319 39.188 -4.19847 -179.274 48.9613 -177.257
RightUpLeg  -14.7474 -26.5199 -0.874896
RightLeg  22.4316 -0.414845 1.14001
RightFoot  -4.08169 0.0698928 -1.53712
RightToes  0.000482159 0.542163 -0.142577
Spine  24.9341 -1.30135 8.74351
Spine1  13.3031 2.14009 -5.36965
HEad  17.4601 4.34055 -7.90958
LeftShoulder1  9.03246 -14.2128 -44.403
LeftArm  -17.8811 14.4766 -23.0078
LeftForeArm  34.5907 -47.8 -9.81116
LeftHand  -0.25398 0.0180481 5.50724
RightShoulder  5.97013 10.718 35.9947
RightArm  -10.7843 13.7284 31.5411
RightForeArm  6.72636 8.73899 6.88866
RightHand  -1.06831 2.27667 -16.3267
LeftUpLeg  -24.7839 11.9213 0.58089
LeftLeg  47.7283 5.67194 7.03637
LeftFoot  -4.9127 0.0231276 0.152791
LeftToes  1.06247e-005 4.65855e-005 -8.18504e-006
356
root  46.0822 39.4119 -4.26523 -178.674 46.4223 -177.67
RightUpLeg  -13.018 -25.8769 -1.05729
RightLeg  20.7516 -3.57809 0.894599
RightFoot  -4.83796 0.0751215 -1.89455
RightToes  0.000482159 0.542163 -0.142577
Spine  25.0141 -1.18798 8.36796
Spine1  13.2354 2.07822 -5.46931
HEad  17.2028 3.36582 -7.86573
LeftShoulder1  9.2199 -14.5205 -44.5572
LeftArm  -15.7573 14.1144 -23.0734
LeftForeArm  33.7574 -44.4258 -8.64167
LeftHand  -0.25398 0.0180481 5.50724
RightShoulder  5.7396 10.5396 34.9099
RightArm  -10.8337 15.5937 31.1366
RightForeArm  2.53649 10.7543 6.93752
RightHand  -1.20918 2.84291 -17.2167
LeftUpLeg  -25.5138 16.781 -3.15266
LeftLeg  36.9082 6.96301 5.97594
LeftFoot  -5.87083 -0.00259487 0.769828
LeftToes  1.06247e-005 4.65855e-005 -8.18504e-006
357
root  46.9924 39.54 -4.39243 -177.939 43.8752 -177.952
RightUpLeg  -11.9267 -26.245 -0.928926
RightLeg  19.9139 -5.69197 0.718011
RightFoot  -6.02299 0.0496552 -1.94188
RightToes  0.000482159 0.542163 -0.142577
Spine  25.008 -1.12737 8.16717
Spine1  13.527 2.08515 -5.43735
HEad  16.8027 2.19483 -7.69854
LeftShoulder1  9.43077 -14.8286 -44.8219
LeftArm  -13.6542 13.3138 -23.0433
LeftForeArm  33.1951 -41.3339 -7.67897
LeftHand  -0.25398 0.0180481 5.50724
RightShoulder  5.59852 10.5408 33.9144
RightArm  -9.53628 17.0494 30.0454
RightForeArm  -1.82299 13.5748 6.80718
RightHand  -1.28862 3.1818 -17.6257
LeftUpLeg  -25.839 25.5988 -8.58496
LeftLeg  24.4613 6.38325 3.93549
LeftFoot  -4.74875 0.0712626 -0.571688
LeftToes  1.06247e-005 4.65855e-005 -8.18504e-006
358
root  47.8702 39.5354 -4.60115 -176.858 41.691 -177.408
RightUpLeg  -11.4689 -28.8088 0.314681
RightLeg  20.3049 -5.37865 0.233403
RightFoot  -7.57814 0.0201977 -2.21387
RightToes  0.000482159 0.542163 -0.142577
Spine  24.8754 -1.17662 8.74369
Spine1  14.084 2.27278 -5.60392
HEad  16.0582 0.93186 -7.604
LeftShoulder1  9.55098 -15.0842 -44.7666
LeftArm  -11.9053 12.2236 -23.3277
LeftForeArm  32.5079 -38.3003 -6.82985
LeftHand  -0.25398 0.0180481 5.50724
RightShoulder  5.55018 10.692 33.1528
RightArm  -7.95931 18.7394 28.4174
RightForeArm  -4.25834 15.9345 6.45113
RightHand  -1.26021 3.11031 -17.3816
LeftUpLeg  -24.5132 30.6207 -11.4113
LeftLeg  12.5516 12.145 -0.32506
LeftFoot  -1.26324 0.00795896 -0.228269
LeftToes  1.06247e-005 4.65855e-005 -8.18504e-006
359
root  48.7298 39.4117 -4.85304 -175.955 39.7993 -176.225
RightUpLeg  -10.9587 -32.45 2.24456
RightLeg  21.4613 -3.72855 -0.726555
RightFoot  -9.33596 -0.0138938 -2.82239
RightToes  0.000482159 0.542163 -0.142577
Spine  25.0273 -1.29171 9.42005
Spine1  14.6842 2.45712 -5.6422
HEad  15.4241 0.101795 -7.37249
LeftShoulder1  9.54836 -15.2863 -44.2484
LeftArm  -10.6788 11.3014 -24.0472
LeftForeArm  31.3973 -35.5395 -6.14715
LeftHand  -0.25398 0.0180481 5.50724
RightShoulder  5.52467 10.8563 32.5278
RightArm  -6.99337 21.0696 26.7297
RightForeArm  -4.0235 16.8146 6.27141
RightHand  -1.1836 2.89104 -16.7675
LeftUpLeg  -17.5515 12.459 -2.13496
LeftLeg  0.624514 40.9439 -10.8233
LeftFoot  1.70812 -0.765115 6.59912
LeftToes  1.06247e-005 4.65855e-005 -8.18504e-006
360
root  49.5774 39.2209 -5.08103 -175.899 37.8014 -175.411
RightUpLeg  -10.3739 -34.6083 3.3347
RightLeg  23.8989 -3.37982 -1.9926
RightFoot  -11.176 -0.0660086 -2.00603
RightToes  0.000482159 0.542163 -0.142577
Spine  25.8645 -1.29074 8.7227
Spine1  15.0914 2.22177 -4.70765
HEad  15.1732 -0.198731 -6.7156
LeftShoulder1  9.52719 -15.4496 -43.7438
LeftArm  -9.86093 10.4259 -24.6265
LeftForeArm  29.9136 -33.2232 -5.64355
LeftHand  -0.25398 0.0180481 5.50724
RightShoulder  5.49329 10.9772 31.9881
RightArm  -6.76605 24.0119 25.3327
RightForeArm  -2.56359 16.5165 6.35859
RightHand  -1.12525 2.71941 -16.2853
LeftUpLeg  -15.6561 6.30938 -0.825797
LeftLeg  -5.92314 49.6907 -15.4882
LeftFoot  1.89441 -1.77876 15.2693
LeftToes  1.06247e-005 4.65855e-005 -8.18504e-006
361
root  50.395 39.0321 -5.24929 -176.447 35.5912 -175.625
RightUpLeg  -11.4527 -34.2171 2.99044
RightLeg  29.6271 -5.06203 -3.35941
RightFoot  -11.5809 -0.0827179 1.63006
RightToes  0.000482159 0.542163 -0.142577
Spine  27.2362 -1.04598 6.48729
Spine1  15.1773 1.5711 -3.04329
HEad  14.6782 -0.43861 -5.65828
LeftShoulder1  9.59635 -15.6653 -43.554
LeftArm  -9.31194 8.85139 -24.5409
LeftForeArm  28.5549 -31.1211 -5.21102
LeftHand  -0.25398 0.0180481 5.50724
RightShoulder  5.48999 11.1028 31.6369
RightArm  -7.58996 27.039 24.2783
RightForeArm  -1.71086 16.1781 6.4182
RightHand  -1.10493 2.58346 -16.2594
LeftUpLeg  -16.203 6.89805 -1.63758
LeftLeg  -1.07897 47.6105 -11.0162
LeftFoot  -0.0571292 -1.93747 19.3537
LeftToes  1.06247e-005 4.65855e-005 -8.18504e-006
362
root  51.1459 38.8913 -5.36835 -176.807 33.3522 -176.685
RightUpLeg  -15.9645 -34.2797 2.24077
RightLeg  39.1184 -5.179 -4.76676
RightFoot  -7.82361 -0.255346 6.10011
RightToes  0.000482159 0.542163 -0.142577
Spine  28.7498 -0.799944 4.18047
Spine1  15.0782 1.04001 -2.16748
HEad  13.3276 -1.12369 -4.44092
LeftShoulder1  9.73798 -16.1224 -43.1442
LeftArm  -9.10498 6.17861 -24.192
LeftForeArm  27.7462 -28.9529 -4.75263
LeftHand  -0.25398 0.0180481 5.50724
RightShoulder  5.50855 11.2219 31.4577
RightArm  -9.44813 29.499 23.5897
RightForeArm  -2.556 16.4937 6.25181
RightHand  -1.1716 2.75287 -16.8626
LeftUpLeg  -18.2599 11.8726 -3.58587
LeftLeg  6.30108 40.3578 -5.82448
LeftFoot  -1.90667 -1.52819 18.4616
LeftToes  1.06247e-005 4.65855e-005 -8.18504e-006
363
root  51.8128 38.7772 -5.45132 -176.85 31.1738 -178.072
RightUpLeg  -22.5649 -34.3979 1.18137
RightLeg  49.5221 -3.94921 -5.26614
RightFoot  0.194281 -0.794248 8.04397
RightToes  0.000482159 0.542163 -0.142577
Spine  30.3911 -0.839371 2.8797
Spine1  14.9814 0.94385 -2.83551
HEad  11.7162 -2.57074 -3.50292
LeftShoulder1  9.85642 -16.8946 -41.9363
LeftArm  -9.3201 2.67695 -24.4792
LeftForeArm  27.2203 -26.6989 -4.27802
LeftHand  -0.25398 0.0180481 5.50724
RightShoulder  5.43805 11.2059 31.0141
RightArm  -11.7157 31.2196 23.4741
RightForeArm  -4.82085 17.1856 6.01829
RightHand  -1.36383 3.45996 -18.0536
LeftUpLeg  -21.0113 20.5171 -7.39835
LeftLeg  11.4655 29.7892 -2.62995
LeftFoot  -2.6837 -1.24155 16.508
LeftToes  1.06247e-005 4.65855e-005 -8.18504e-006
